<svg xmlns="http://www.w3.org/2000/svg" version="1.1" xmlns:xlink="http://www.w3.org/1999/xlink" xmlns:svgjs="http://svgjs.com/svgjs" width="500" height="300" transform="matrix(1,0,0,1,0,0)">
  <text font-family="DM Sans" font-size="260" text-anchor="left" x="310" charspacing="20px">
    <tspan dy="20.8" x="310"/>
  </text>
  <path transform="matrix(6.123233995736766e-17,1,-1,6.123233995736766e-17,148,149.33)" d="M30.349,19.967A17.94326518122642,17.94326518122642,-55.63485749430011,0,0,-0.5,12.5L-0.5,12.5A0.08520041904939829,0.08520041904939829,-0.28709169650552835,0,0,-0.373,12.613L38.5,-31A26.957004684790483,26.957004684790483,32.518514228662376,0,1,85.235,-8.757L73.689,62.589A16.45180842938055,16.45180842938055,-336.5965650378568,0,1,41.5,64ZM-30.349,-19.967A17.943265181226412,17.943265181226412,304.3651425056999,0,0,0.5,-12.5L0.5,-12.5A0.0852004190493964,0.0852004190493964,-0.28709169650552196,0,0,0.373,-12.613L-38.5,31A26.957004684790487,26.957004684790487,32.51851422866238,0,1,-85.235,8.757L-73.689,-62.589A16.451808429380577,16.451808429380577,23.40343496214325,0,1,-41.5,-64Z"/>
</svg>